<svg xmlns="http://www.w3.org/2000/svg" xmlns:xlink="http://www.w3.org/1999/xlink" xml:space="preserve" version="1.1" style="shape-rendering:geometricPrecision;text-rendering:geometricPrecision;image-rendering:optimizeQuality;" viewBox="0 0 358 428.75" x="0px" y="0px" fill-rule="evenodd" clip-rule="evenodd"><defs><style type="text/css">
   
    .fil0 {fill:black}
   
  </style></defs><g><path class="fil0" d="M139 265c-22,0 -39,17 -39,39 0,21 17,39 39,39 21,0 38,-18 38,-39 0,-22 -17,-39 -38,-39zm0 61c-13,0 -23,-10 -23,-22 0,-13 10,-23 23,-23 12,0 22,10 22,23 0,12 -10,22 -22,22z"/><path class="fil0" d="M350 53l-273 0c-7,-34 -36,-53 -69,-53 -11,0 -11,16 0,16 26,0 48,17 53,43l27 157c4,23 24,40 47,40l163 0c11,0 11,-17 0,-17l-163 0c-15,1 -29,-10 -31,-25l-2 -11 180 0c22,0 42,-15 47,-37l29 -101c1,-6 -3,-11 -8,-12zm-36 110c-4,14 -17,24 -32,24l-183 0c-7,-42 -14,-80 -20,-118l260 0c-8,31 -16,59 -25,94z"/><path class="fil0" d="M252 265c-21,0 -38,17 -38,39 0,21 17,39 38,39 22,0 39,-18 39,-39 0,-22 -17,-39 -39,-39zm0 61c-12,0 -22,-10 -22,-22 0,-13 10,-23 22,-23 13,0 23,10 23,23 0,12 -10,22 -23,22z"/></g></svg>