<svg xmlns="http://www.w3.org/2000/svg" xmlns:xlink="http://www.w3.org/1999/xlink" version="1.1" x="0px" y="0px" viewBox="0 0 100 125" style="enable-background:new 0 0 100 100;" xml:space="preserve"><g><path d="M50,86.7c20.2,0,36.7-16.4,36.7-36.7S70.2,13.3,50,13.3S13.3,29.8,13.3,50S29.8,86.7,50,86.7z M27.8,73.9   c6-7.5,13.9-11.6,22.2-11.6s16.2,4.1,22.2,11.6c-5.8,5.4-13.6,8.7-22.2,8.7S33.6,79.3,27.8,73.9z M50,17.3C68,17.3,82.7,32,82.7,50   c0,8-2.9,15.3-7.7,21c-6.8-8.2-15.6-12.7-25-12.7S31.8,62.8,25,71c-4.8-5.7-7.7-13-7.7-21C17.3,32,32,17.3,50,17.3z"/><path d="M50,53.3c7.8,0,14.2-6.4,14.2-14.2c0-7.8-6.4-14.2-14.2-14.2s-14.2,6.4-14.2,14.2C35.8,46.9,42.2,53.3,50,53.3z M50,28.9   c5.6,0,10.2,4.6,10.2,10.2S55.6,49.3,50,49.3s-10.2-4.6-10.2-10.2S44.4,28.9,50,28.9z"/></g></svg>